# xmcd
#
# Track frame offsets: 
#        150
#        21310
#        39207
#        62282
#        76317
#        96619
#        112641
#        129076
#        142736
#        166530
#
# Disc length: 2484 seconds
#
# Revision: 0
# Processed by: cddbd v1.5.2PL0 Copyright (c) Steve Scherf et al.
# Submitted via: ExactAudioCopy v1.1
#
DISCID=6509b20a
DTITLE=Eric Bell - Exile
DYEAR=2015
DGENRE=Blues-Rock
TTITLE0=Deep In Your Heart
TTITLE1=Don't Love Me No More
TTITLE2=Gotta Say Bye Bye
TTITLE3=Vote For Me
TTITLE4=Exile
TTITLE5=Little Boy Running
TTITLE6=Rip It Up
TTITLE7=Concrete Jungle
TTITLE8=Thank God
TTITLE9=Song For Gary
EXTD=
EXTT0=
EXTT1=
EXTT2=
EXTT3=
EXTT4=
EXTT5=
EXTT6=
EXTT7=
EXTT8=
EXTT9=
PLAYORDER=
